<mxfile host="app.diagrams.net" agent="Mozilla/5.0 (Windows NT 10.0; Win64; x64) AppleWebKit/537.36 (KHTML, like Gecko) Chrome/131.0.0.0 Safari/537.36" version="25.0.3">
  <diagram name="Page-1" id="BjIJubMWM04Ybu3N3eNQ">
    <mxGraphModel grid="0" page="1" gridSize="10" guides="1" tooltips="1" connect="1" arrows="1" fold="1" pageScale="1" pageWidth="827" pageHeight="1169" math="0" shadow="0">
      <root>
        <mxCell id="0" />
        <mxCell id="1" parent="0" />
        <mxCell id="jjx_FHtv98j6Nj69-CtY-1" value="&lt;font style=&quot;font-size: 22px;&quot;&gt;Class Diagram for Food Express Web Application&lt;/font&gt;" style="text;align=center;fontStyle=1;verticalAlign=middle;spacingLeft=3;spacingRight=3;strokeColor=none;rotatable=0;points=[[0,0.5],[1,0.5]];portConstraint=eastwest;html=1;" vertex="1" parent="1">
          <mxGeometry x="374" y="40" width="80" height="26" as="geometry" />
        </mxCell>
        <mxCell id="jjx_FHtv98j6Nj69-CtY-2" value="Customer" style="swimlane;fontStyle=1;align=center;verticalAlign=top;childLayout=stackLayout;horizontal=1;startSize=26;horizontalStack=0;resizeParent=1;resizeParentMax=0;resizeLast=0;collapsible=1;marginBottom=0;whiteSpace=wrap;html=1;fillColor=#dae8fc;strokeColor=#6c8ebf;" vertex="1" parent="1">
          <mxGeometry x="80" y="120" width="160" height="260" as="geometry" />
        </mxCell>
        <mxCell id="jjx_FHtv98j6Nj69-CtY-3" value="+ name: string&lt;div&gt;+ phone_no.: int&lt;br&gt;&lt;div&gt;+ email: string&lt;/div&gt;&lt;/div&gt;&lt;div&gt;+ address: string&lt;/div&gt;&lt;div&gt;+ password: varchar&lt;/div&gt;&lt;div&gt;+ order_history: list&amp;lt;orders&amp;gt;&lt;/div&gt;" style="text;strokeColor=none;fillColor=none;align=left;verticalAlign=top;spacingLeft=4;spacingRight=4;overflow=hidden;rotatable=0;points=[[0,0.5],[1,0.5]];portConstraint=eastwest;whiteSpace=wrap;html=1;" vertex="1" parent="jjx_FHtv98j6Nj69-CtY-2">
          <mxGeometry y="26" width="160" height="94" as="geometry" />
        </mxCell>
        <mxCell id="jjx_FHtv98j6Nj69-CtY-4" value="" style="line;strokeWidth=1;fillColor=none;align=left;verticalAlign=middle;spacingTop=-1;spacingLeft=3;spacingRight=3;rotatable=0;labelPosition=right;points=[];portConstraint=eastwest;strokeColor=inherit;" vertex="1" parent="jjx_FHtv98j6Nj69-CtY-2">
          <mxGeometry y="120" width="160" height="8" as="geometry" />
        </mxCell>
        <mxCell id="jjx_FHtv98j6Nj69-CtY-5" value="+ register()&lt;div&gt;+ login()&lt;/div&gt;&lt;div&gt;+ browseRestaurants()&lt;/div&gt;&lt;div&gt;+ placeOrder()&lt;/div&gt;&lt;div&gt;+ trackOrder()&lt;/div&gt;&lt;div&gt;+ cancelOrder()&lt;/div&gt;&lt;div&gt;+ payment()&lt;/div&gt;&lt;div&gt;+ rateandreview()&lt;/div&gt;" style="text;strokeColor=none;fillColor=none;align=left;verticalAlign=top;spacingLeft=4;spacingRight=4;overflow=hidden;rotatable=0;points=[[0,0.5],[1,0.5]];portConstraint=eastwest;whiteSpace=wrap;html=1;" vertex="1" parent="jjx_FHtv98j6Nj69-CtY-2">
          <mxGeometry y="128" width="160" height="132" as="geometry" />
        </mxCell>
        <mxCell id="jjx_FHtv98j6Nj69-CtY-6" value="Restaurant Owner" style="swimlane;fontStyle=1;align=center;verticalAlign=top;childLayout=stackLayout;horizontal=1;startSize=26;horizontalStack=0;resizeParent=1;resizeParentMax=0;resizeLast=0;collapsible=1;marginBottom=0;whiteSpace=wrap;html=1;fillColor=#fff2cc;strokeColor=#d6b656;" vertex="1" parent="1">
          <mxGeometry x="340" y="120" width="160" height="240" as="geometry" />
        </mxCell>
        <mxCell id="jjx_FHtv98j6Nj69-CtY-7" value="+ name: string&lt;div&gt;+ phone_no.: int&lt;br&gt;&lt;div&gt;+ email: string&lt;/div&gt;&lt;/div&gt;&lt;div&gt;+ address: string&lt;/div&gt;&lt;div&gt;+ password: varchar&lt;/div&gt;&lt;div&gt;+ restaurant_name: string&lt;/div&gt;&lt;div&gt;+ orders: list&amp;lt;orders&amp;gt;&lt;/div&gt;" style="text;strokeColor=none;fillColor=none;align=left;verticalAlign=top;spacingLeft=4;spacingRight=4;overflow=hidden;rotatable=0;points=[[0,0.5],[1,0.5]];portConstraint=eastwest;whiteSpace=wrap;html=1;" vertex="1" parent="jjx_FHtv98j6Nj69-CtY-6">
          <mxGeometry y="26" width="160" height="104" as="geometry" />
        </mxCell>
        <mxCell id="jjx_FHtv98j6Nj69-CtY-8" value="" style="line;strokeWidth=1;fillColor=none;align=left;verticalAlign=middle;spacingTop=-1;spacingLeft=3;spacingRight=3;rotatable=0;labelPosition=right;points=[];portConstraint=eastwest;strokeColor=inherit;" vertex="1" parent="jjx_FHtv98j6Nj69-CtY-6">
          <mxGeometry y="130" width="160" height="8" as="geometry" />
        </mxCell>
        <mxCell id="jjx_FHtv98j6Nj69-CtY-9" value="+ registerRestaurant()&lt;div&gt;+ login()&lt;/div&gt;&lt;div&gt;+ manageMenu()&lt;/div&gt;&lt;div&gt;+ manageProfile()&lt;/div&gt;&lt;div&gt;+ orderManagement()&lt;/div&gt;&lt;div&gt;+ viewAnalytics&amp;amp;Reports()&lt;/div&gt;" style="text;strokeColor=none;fillColor=none;align=left;verticalAlign=top;spacingLeft=4;spacingRight=4;overflow=hidden;rotatable=0;points=[[0,0.5],[1,0.5]];portConstraint=eastwest;whiteSpace=wrap;html=1;" vertex="1" parent="jjx_FHtv98j6Nj69-CtY-6">
          <mxGeometry y="138" width="160" height="102" as="geometry" />
        </mxCell>
        <mxCell id="jjx_FHtv98j6Nj69-CtY-10" value="Restaurant" style="swimlane;fontStyle=1;align=center;verticalAlign=top;childLayout=stackLayout;horizontal=1;startSize=26;horizontalStack=0;resizeParent=1;resizeParentMax=0;resizeLast=0;collapsible=1;marginBottom=0;whiteSpace=wrap;html=1;fillColor=#fff2cc;strokeColor=#d6b656;" vertex="1" parent="1">
          <mxGeometry x="580" y="120" width="170" height="240" as="geometry" />
        </mxCell>
        <mxCell id="jjx_FHtv98j6Nj69-CtY-11" value="+ name: string&lt;div&gt;+ restaurant_id:&amp;nbsp; int&lt;br&gt;&lt;div&gt;+ contact_no.: int&lt;/div&gt;&lt;div&gt;+ address: string&lt;/div&gt;&lt;div&gt;+ menu_list: list&amp;lt;items&amp;gt;&lt;/div&gt;&lt;div&gt;+ ratings: list&amp;lt;reviews&amp;gt;&lt;/div&gt;&lt;div&gt;+ owner: Restaurant Owner&lt;/div&gt;&lt;/div&gt;" style="text;strokeColor=none;fillColor=none;align=left;verticalAlign=top;spacingLeft=4;spacingRight=4;overflow=hidden;rotatable=0;points=[[0,0.5],[1,0.5]];portConstraint=eastwest;whiteSpace=wrap;html=1;" vertex="1" parent="jjx_FHtv98j6Nj69-CtY-10">
          <mxGeometry y="26" width="170" height="104" as="geometry" />
        </mxCell>
        <mxCell id="jjx_FHtv98j6Nj69-CtY-12" value="" style="line;strokeWidth=1;fillColor=none;align=left;verticalAlign=middle;spacingTop=-1;spacingLeft=3;spacingRight=3;rotatable=0;labelPosition=right;points=[];portConstraint=eastwest;strokeColor=inherit;" vertex="1" parent="jjx_FHtv98j6Nj69-CtY-10">
          <mxGeometry y="130" width="170" height="8" as="geometry" />
        </mxCell>
        <mxCell id="jjx_FHtv98j6Nj69-CtY-13" value="+ addMenuItem()&lt;div&gt;+ removeMenuItem()&lt;/div&gt;&lt;div&gt;+ updateMenuItem()&lt;/div&gt;&lt;div&gt;+ viewMenu()&lt;/div&gt;&lt;div&gt;+ viewReviews()&lt;/div&gt;&lt;div&gt;+ updateRestaurantDetails()&lt;/div&gt;" style="text;strokeColor=none;fillColor=none;align=left;verticalAlign=top;spacingLeft=4;spacingRight=4;overflow=hidden;rotatable=0;points=[[0,0.5],[1,0.5]];portConstraint=eastwest;whiteSpace=wrap;html=1;" vertex="1" parent="jjx_FHtv98j6Nj69-CtY-10">
          <mxGeometry y="138" width="170" height="102" as="geometry" />
        </mxCell>
        <mxCell id="jjx_FHtv98j6Nj69-CtY-14" value="Order" style="swimlane;fontStyle=1;align=center;verticalAlign=top;childLayout=stackLayout;horizontal=1;startSize=26;horizontalStack=0;resizeParent=1;resizeParentMax=0;resizeLast=0;collapsible=1;marginBottom=0;whiteSpace=wrap;html=1;fillColor=#f8cecc;strokeColor=#b85450;" vertex="1" parent="1">
          <mxGeometry x="80" y="550" width="180" height="230" as="geometry" />
        </mxCell>
        <mxCell id="jjx_FHtv98j6Nj69-CtY-15" value="+ order_id: int&lt;div&gt;&lt;div&gt;+ order_date: varchar&lt;br&gt;&lt;div&gt;+ status: string&lt;/div&gt;&lt;/div&gt;&lt;div&gt;+ total_amount: float&lt;/div&gt;&lt;div&gt;+ customer: Customer&lt;/div&gt;&lt;div&gt;+ restaurant: Restaurant&lt;/div&gt;&lt;/div&gt;&lt;div&gt;+ payment: Payment&lt;/div&gt;&lt;div&gt;+ menu_items: list&amp;lt;MenuItem&amp;gt;&lt;/div&gt;" style="text;strokeColor=none;fillColor=none;align=left;verticalAlign=top;spacingLeft=4;spacingRight=4;overflow=hidden;rotatable=0;points=[[0,0.5],[1,0.5]];portConstraint=eastwest;whiteSpace=wrap;html=1;" vertex="1" parent="jjx_FHtv98j6Nj69-CtY-14">
          <mxGeometry y="26" width="180" height="124" as="geometry" />
        </mxCell>
        <mxCell id="jjx_FHtv98j6Nj69-CtY-16" value="" style="line;strokeWidth=1;fillColor=none;align=left;verticalAlign=middle;spacingTop=-1;spacingLeft=3;spacingRight=3;rotatable=0;labelPosition=right;points=[];portConstraint=eastwest;strokeColor=inherit;" vertex="1" parent="jjx_FHtv98j6Nj69-CtY-14">
          <mxGeometry y="150" width="180" height="8" as="geometry" />
        </mxCell>
        <mxCell id="jjx_FHtv98j6Nj69-CtY-17" value="+ addMenuItem()&lt;div&gt;+ updateOrderStatus()&lt;/div&gt;&lt;div&gt;+ calculateTotalAmount()&lt;/div&gt;&lt;div&gt;+ trackOrder()&lt;/div&gt;" style="text;strokeColor=none;fillColor=none;align=left;verticalAlign=top;spacingLeft=4;spacingRight=4;overflow=hidden;rotatable=0;points=[[0,0.5],[1,0.5]];portConstraint=eastwest;whiteSpace=wrap;html=1;" vertex="1" parent="jjx_FHtv98j6Nj69-CtY-14">
          <mxGeometry y="158" width="180" height="72" as="geometry" />
        </mxCell>
        <mxCell id="jjx_FHtv98j6Nj69-CtY-18" value="Menu Item" style="swimlane;fontStyle=1;align=center;verticalAlign=top;childLayout=stackLayout;horizontal=1;startSize=26;horizontalStack=0;resizeParent=1;resizeParentMax=0;resizeLast=0;collapsible=1;marginBottom=0;whiteSpace=wrap;html=1;fillColor=#e1d5e7;strokeColor=#9673a6;" vertex="1" parent="1">
          <mxGeometry x="490" y="484.5" width="160" height="200" as="geometry" />
        </mxCell>
        <mxCell id="jjx_FHtv98j6Nj69-CtY-19" value="+ name: string&lt;div&gt;+ menu_item_id: int&lt;div&gt;&lt;div&gt;+ description: string&lt;/div&gt;&lt;/div&gt;&lt;div&gt;+ price: float&lt;/div&gt;&lt;div&gt;+ category: string&lt;/div&gt;&lt;div&gt;+ image_url: string&lt;/div&gt;&lt;/div&gt;" style="text;strokeColor=none;fillColor=none;align=left;verticalAlign=top;spacingLeft=4;spacingRight=4;overflow=hidden;rotatable=0;points=[[0,0.5],[1,0.5]];portConstraint=eastwest;whiteSpace=wrap;html=1;" vertex="1" parent="jjx_FHtv98j6Nj69-CtY-18">
          <mxGeometry y="26" width="160" height="94" as="geometry" />
        </mxCell>
        <mxCell id="jjx_FHtv98j6Nj69-CtY-20" value="" style="line;strokeWidth=1;fillColor=none;align=left;verticalAlign=middle;spacingTop=-1;spacingLeft=3;spacingRight=3;rotatable=0;labelPosition=right;points=[];portConstraint=eastwest;strokeColor=inherit;" vertex="1" parent="jjx_FHtv98j6Nj69-CtY-18">
          <mxGeometry y="120" width="160" height="8" as="geometry" />
        </mxCell>
        <mxCell id="jjx_FHtv98j6Nj69-CtY-21" value="+ addCustomization()&lt;div&gt;+ updatePrice()&lt;/div&gt;&lt;div&gt;+ updateDescription()&lt;/div&gt;&lt;div&gt;+ viewDetails()&lt;/div&gt;" style="text;strokeColor=none;fillColor=none;align=left;verticalAlign=top;spacingLeft=4;spacingRight=4;overflow=hidden;rotatable=0;points=[[0,0.5],[1,0.5]];portConstraint=eastwest;whiteSpace=wrap;html=1;" vertex="1" parent="jjx_FHtv98j6Nj69-CtY-18">
          <mxGeometry y="128" width="160" height="72" as="geometry" />
        </mxCell>
        <mxCell id="jjx_FHtv98j6Nj69-CtY-22" value="Payment" style="swimlane;fontStyle=1;align=center;verticalAlign=top;childLayout=stackLayout;horizontal=1;startSize=26;horizontalStack=0;resizeParent=1;resizeParentMax=0;resizeLast=0;collapsible=1;marginBottom=0;whiteSpace=wrap;html=1;fillColor=#f8cecc;strokeColor=#b85450;" vertex="1" parent="1">
          <mxGeometry x="200" y="870" width="160" height="170" as="geometry" />
        </mxCell>
        <mxCell id="jjx_FHtv98j6Nj69-CtY-23" value="+ payment_id: int&lt;div&gt;+ payment_method: string&lt;br&gt;&lt;div&gt;+ payment_status: string&lt;/div&gt;&lt;/div&gt;&lt;div&gt;+ amount: float&lt;/div&gt;&lt;div&gt;+ payment_date: datetime&lt;/div&gt;&lt;div&gt;+ order: Order&lt;/div&gt;" style="text;strokeColor=none;fillColor=none;align=left;verticalAlign=top;spacingLeft=4;spacingRight=4;overflow=hidden;rotatable=0;points=[[0,0.5],[1,0.5]];portConstraint=eastwest;whiteSpace=wrap;html=1;" vertex="1" parent="jjx_FHtv98j6Nj69-CtY-22">
          <mxGeometry y="26" width="160" height="94" as="geometry" />
        </mxCell>
        <mxCell id="jjx_FHtv98j6Nj69-CtY-24" value="" style="line;strokeWidth=1;fillColor=none;align=left;verticalAlign=middle;spacingTop=-1;spacingLeft=3;spacingRight=3;rotatable=0;labelPosition=right;points=[];portConstraint=eastwest;strokeColor=inherit;" vertex="1" parent="jjx_FHtv98j6Nj69-CtY-22">
          <mxGeometry y="120" width="160" height="8" as="geometry" />
        </mxCell>
        <mxCell id="jjx_FHtv98j6Nj69-CtY-25" value="+ processPayment()&lt;div&gt;+ refundPayment()&lt;/div&gt;" style="text;strokeColor=none;fillColor=none;align=left;verticalAlign=top;spacingLeft=4;spacingRight=4;overflow=hidden;rotatable=0;points=[[0,0.5],[1,0.5]];portConstraint=eastwest;whiteSpace=wrap;html=1;" vertex="1" parent="jjx_FHtv98j6Nj69-CtY-22">
          <mxGeometry y="128" width="160" height="42" as="geometry" />
        </mxCell>
        <mxCell id="jjx_FHtv98j6Nj69-CtY-26" value="Review" style="swimlane;fontStyle=1;align=center;verticalAlign=top;childLayout=stackLayout;horizontal=1;startSize=26;horizontalStack=0;resizeParent=1;resizeParentMax=0;resizeLast=0;collapsible=1;marginBottom=0;whiteSpace=wrap;html=1;fillColor=#e1d5e7;strokeColor=#9673a6;" vertex="1" parent="1">
          <mxGeometry x="520" y="800" width="160" height="180" as="geometry" />
        </mxCell>
        <mxCell id="jjx_FHtv98j6Nj69-CtY-27" value="+ review_id: int&lt;div&gt;+ rating: int&lt;br&gt;&lt;div&gt;+ comment: string&lt;/div&gt;&lt;/div&gt;&lt;div&gt;+ review_date: datetime&lt;/div&gt;&lt;div&gt;+ customer: Customer&lt;/div&gt;&lt;div&gt;+ restaurant: Restaurant&lt;/div&gt;&lt;div&gt;+ menu_item: Menu Item&lt;/div&gt;" style="text;strokeColor=none;fillColor=none;align=left;verticalAlign=top;spacingLeft=4;spacingRight=4;overflow=hidden;rotatable=0;points=[[0,0.5],[1,0.5]];portConstraint=eastwest;whiteSpace=wrap;html=1;" vertex="1" parent="jjx_FHtv98j6Nj69-CtY-26">
          <mxGeometry y="26" width="160" height="104" as="geometry" />
        </mxCell>
        <mxCell id="jjx_FHtv98j6Nj69-CtY-28" value="" style="line;strokeWidth=1;fillColor=none;align=left;verticalAlign=middle;spacingTop=-1;spacingLeft=3;spacingRight=3;rotatable=0;labelPosition=right;points=[];portConstraint=eastwest;strokeColor=inherit;" vertex="1" parent="jjx_FHtv98j6Nj69-CtY-26">
          <mxGeometry y="130" width="160" height="8" as="geometry" />
        </mxCell>
        <mxCell id="jjx_FHtv98j6Nj69-CtY-29" value="+ submitReview()&lt;div&gt;+ viewReview()&lt;/div&gt;" style="text;strokeColor=none;fillColor=none;align=left;verticalAlign=top;spacingLeft=4;spacingRight=4;overflow=hidden;rotatable=0;points=[[0,0.5],[1,0.5]];portConstraint=eastwest;whiteSpace=wrap;html=1;" vertex="1" parent="jjx_FHtv98j6Nj69-CtY-26">
          <mxGeometry y="138" width="160" height="42" as="geometry" />
        </mxCell>
        <mxCell id="jjx_FHtv98j6Nj69-CtY-30" value="" style="endArrow=open;endFill=1;endSize=12;html=1;rounded=0;exitX=0.288;exitY=1.02;exitDx=0;exitDy=0;exitPerimeter=0;entryX=0.606;entryY=0.005;entryDx=0;entryDy=0;entryPerimeter=0;" edge="1" parent="1" source="jjx_FHtv98j6Nj69-CtY-13" target="jjx_FHtv98j6Nj69-CtY-18">
          <mxGeometry width="160" relative="1" as="geometry">
            <mxPoint x="380" y="400" as="sourcePoint" />
            <mxPoint x="540" y="400" as="targetPoint" />
          </mxGeometry>
        </mxCell>
        <mxCell id="jjx_FHtv98j6Nj69-CtY-31" value="" style="endArrow=open;endFill=1;endSize=12;html=1;rounded=0;exitX=0.438;exitY=1;exitDx=0;exitDy=0;exitPerimeter=0;entryX=0.561;entryY=-0.004;entryDx=0;entryDy=0;entryPerimeter=0;" edge="1" parent="1" source="jjx_FHtv98j6Nj69-CtY-5" target="jjx_FHtv98j6Nj69-CtY-14">
          <mxGeometry width="160" relative="1" as="geometry">
            <mxPoint x="70" y="420" as="sourcePoint" />
            <mxPoint x="150" y="437" as="targetPoint" />
          </mxGeometry>
        </mxCell>
        <mxCell id="jjx_FHtv98j6Nj69-CtY-32" value="" style="endArrow=open;endFill=1;endSize=12;html=1;rounded=0;exitX=1;exitY=0.05;exitDx=0;exitDy=0;exitPerimeter=0;entryX=0;entryY=0.054;entryDx=0;entryDy=0;entryPerimeter=0;" edge="1" parent="1" source="jjx_FHtv98j6Nj69-CtY-6" target="jjx_FHtv98j6Nj69-CtY-10">
          <mxGeometry width="160" relative="1" as="geometry">
            <mxPoint x="550" y="210.5" as="sourcePoint" />
            <mxPoint x="570" y="150" as="targetPoint" />
          </mxGeometry>
        </mxCell>
        <mxCell id="jjx_FHtv98j6Nj69-CtY-33" value="Payment Gateway" style="endArrow=open;endSize=12;dashed=1;html=1;rounded=0;entryX=0.938;entryY=0;entryDx=0;entryDy=0;exitX=1;exitY=0;exitDx=0;exitDy=0;entryPerimeter=0;" edge="1" parent="1" source="jjx_FHtv98j6Nj69-CtY-2" target="jjx_FHtv98j6Nj69-CtY-22">
          <mxGeometry x="0.2718" y="-1" width="160" relative="1" as="geometry">
            <mxPoint x="242" y="128" as="sourcePoint" />
            <mxPoint x="400" y="410" as="targetPoint" />
            <Array as="points">
              <mxPoint x="290" y="410" />
              <mxPoint x="350" y="670" />
            </Array>
            <mxPoint as="offset" />
          </mxGeometry>
        </mxCell>
        <mxCell id="jjx_FHtv98j6Nj69-CtY-34" value="" style="endArrow=open;endFill=1;endSize=12;html=1;rounded=0;entryX=0.75;entryY=0;entryDx=0;entryDy=0;" edge="1" parent="1" target="jjx_FHtv98j6Nj69-CtY-14">
          <mxGeometry width="160" relative="1" as="geometry">
            <mxPoint x="580" y="361" as="sourcePoint" />
            <mxPoint x="230" y="459" as="targetPoint" />
          </mxGeometry>
        </mxCell>
        <mxCell id="jjx_FHtv98j6Nj69-CtY-35" value="Review" style="endArrow=open;endSize=12;dashed=1;html=1;rounded=0;exitX=1;exitY=0;exitDx=0;exitDy=0;entryX=0;entryY=0;entryDx=0;entryDy=0;" edge="1" parent="1" source="jjx_FHtv98j6Nj69-CtY-2" target="jjx_FHtv98j6Nj69-CtY-26">
          <mxGeometry x="-0.0578" y="-2" width="160" relative="1" as="geometry">
            <mxPoint x="302" y="184" as="sourcePoint" />
            <mxPoint x="300" y="926" as="targetPoint" />
            <Array as="points">
              <mxPoint x="350" y="466" />
            </Array>
            <mxPoint x="-1" as="offset" />
          </mxGeometry>
        </mxCell>
        <mxCell id="jjx_FHtv98j6Nj69-CtY-37" value="Viewing Review" style="endArrow=open;endSize=12;dashed=1;html=1;rounded=0;exitX=0.782;exitY=1;exitDx=0;exitDy=0;entryX=1;entryY=0;entryDx=0;entryDy=0;exitPerimeter=0;" edge="1" parent="1" source="jjx_FHtv98j6Nj69-CtY-13" target="jjx_FHtv98j6Nj69-CtY-26">
          <mxGeometry width="160" relative="1" as="geometry">
            <mxPoint x="250" y="130" as="sourcePoint" />
            <mxPoint x="530" y="810" as="targetPoint" />
            <Array as="points">
              <mxPoint x="730" y="480" />
            </Array>
          </mxGeometry>
        </mxCell>
        <mxCell id="jjx_FHtv98j6Nj69-CtY-38" value="" style="endArrow=open;endFill=1;endSize=12;html=1;rounded=0;exitX=0.556;exitY=1;exitDx=0;exitDy=0;exitPerimeter=0;entryX=0;entryY=0;entryDx=0;entryDy=0;" edge="1" parent="1" source="jjx_FHtv98j6Nj69-CtY-17" target="jjx_FHtv98j6Nj69-CtY-22">
          <mxGeometry width="160" relative="1" as="geometry">
            <mxPoint x="110" y="840" as="sourcePoint" />
            <mxPoint x="270" y="840" as="targetPoint" />
          </mxGeometry>
        </mxCell>
      </root>
    </mxGraphModel>
  </diagram>
</mxfile>
